<svg width="92" height="15" viewBox="0 0 92 15" fill="none" xmlns="http://www.w3.org/2000/svg">
<path d="M0.26 15V0.819999H2.84L8.28 9.04H7.06L12.48 0.819999H15.06V15H11.52V6.74L12.08 6.9L8.82 11.8H6.5L3.26 6.9L3.82 6.74V15H0.26ZM17.5842 15V0.819999H21.1642V15H17.5842ZM23.678 15V0.819999H26.178L27.258 3.72V15H23.678ZM33.458 15L25.178 4.48L26.178 0.819999L34.478 11.34L33.458 15ZM33.458 15L32.538 12.02V0.819999H36.118V15H33.458ZM42.0789 15V0.919999H45.6589V15H42.0789ZM37.7389 3.9V0.819999H49.9989V3.9H37.7389Z" fill="#30EEE4"/>
<path d="M54.4672 9.92V7.26H57.2672C57.6139 7.26 57.9272 7.19333 58.2072 7.06C58.5005 6.91333 58.7339 6.7 58.9072 6.42C59.0805 6.14 59.1672 5.79333 59.1672 5.38C59.1672 4.96667 59.0805 4.62 58.9072 4.34C58.7339 4.04667 58.5005 3.83333 58.2072 3.7C57.9272 3.55333 57.6139 3.48 57.2672 3.48H54.4672V0.819999H57.8872C58.7939 0.819999 59.6139 1.00667 60.3472 1.38C61.0805 1.74 61.6605 2.26 62.0872 2.94C62.5139 3.60667 62.7272 4.42 62.7272 5.38C62.7272 6.31333 62.5139 7.12667 62.0872 7.82C61.6605 8.5 61.0805 9.02 60.3472 9.38C59.6139 9.74 58.7939 9.92 57.8872 9.92H54.4672ZM51.6272 15V0.819999H55.2072V15H51.6272ZM62.3841 15L67.8841 0.819999H71.3441L76.7841 15H73.0441L68.9441 3.08H70.2441L66.0441 15H62.3841ZM65.7241 12.52V9.68H73.5441V12.52H65.7241ZM80.5316 15V11.92H83.9316C84.7316 11.92 85.4249 11.7667 86.0116 11.46C86.6116 11.1533 87.0716 10.7 87.3916 10.1C87.7116 9.48667 87.8716 8.74667 87.8716 7.88C87.8716 7.02667 87.7049 6.30667 87.3716 5.72C87.0516 5.12 86.5982 4.66667 86.0116 4.36C85.4249 4.05333 84.7316 3.9 83.9316 3.9H80.3716V0.819999H83.9516C85.0449 0.819999 86.0516 0.993332 86.9716 1.34C87.8916 1.67333 88.6916 2.15333 89.3716 2.78C90.0516 3.40667 90.5782 4.15333 90.9516 5.02C91.3382 5.88667 91.5316 6.84667 91.5316 7.9C91.5316 8.96667 91.3382 9.93333 90.9516 10.8C90.5782 11.6667 90.0516 12.4133 89.3716 13.04C88.6916 13.6667 87.8916 14.1533 86.9716 14.5C86.0649 14.8333 85.0716 15 83.9916 15H80.5316ZM78.1116 15V0.819999H81.6916V15H78.1116Z" fill="#666666"/>
</svg>
